<?xml version="1.0" standalone="no"?>
<!DOCTYPE svg PUBLIC "-//W3C//DTD SVG 20010904//EN"
 "http://www.w3.org/TR/2001/REC-SVG-20010904/DTD/svg10.dtd">
<svg version="1.0" xmlns="http://www.w3.org/2000/svg"
 width="470.000000pt" height="453.000000pt" viewBox="0 0 470.000000 453.000000"
 preserveAspectRatio="xMidYMid meet">

<g transform="translate(0.000000,453.000000) scale(0.100000,-0.100000)"
fill="#000000" stroke="none">
<path d="M1261 4462 l-34 -4 123 -123 c67 -67 120 -127 117 -131 -3 -5 -100
-54 -215 -109 -116 -55 -209 -101 -207 -103 1 -1 122 21 269 50 l266 52 60
-59 c33 -33 60 -62 60 -65 0 -4 -75 -42 -167 -85 -93 -43 -172 -82 -176 -85
-4 -4 92 13 215 37 l223 44 106 -113 106 -113 -101 -38 c-263 -99 -770 -277
-788 -277 -12 0 -69 13 -127 30 -58 16 -233 65 -388 109 l-282 80 -151 -17
-151 -17 113 -63 c62 -35 149 -84 193 -109 44 -25 103 -57 130 -72 112 -61
206 -113 315 -174 l115 -64 12 -139 c6 -76 12 -142 12 -146 1 -4 40 7 89 23
l87 31 80 124 c44 68 87 126 95 128 16 5 133 27 243 46 37 7 70 11 72 8 2 -2
-28 -23 -68 -46 -145 -86 -265 -180 -398 -312 -129 -127 -262 -292 -318 -392
-32 -58 -14 -38 42 47 26 39 55 81 66 94 l19 24 123 -50 c68 -28 141 -56 162
-63 20 -6 43 -17 50 -24 7 -8 20 -10 32 -6 18 7 16 9 -10 16 -78 20 -345 132
-345 144 0 15 228 246 304 307 59 48 84 62 100 58 16 -5 18 -4 6 4 -8 5 -12
12 -10 14 21 20 212 136 285 173 l91 46 58 -15 c32 -9 60 -17 62 -20 2 -2 -17
-19 -42 -37 -44 -31 -259 -240 -248 -240 3 0 -15 -26 -39 -57 -74 -98 -177
-263 -163 -263 2 0 19 26 37 58 28 49 117 177 162 235 8 9 20 17 26 17 7 0 10
4 7 9 -7 11 184 197 247 240 l49 33 106 -16 c59 -10 117 -19 130 -22 l22 -4
-24 -38 c-29 -47 -76 -139 -76 -149 1 -4 8 6 16 22 9 17 34 61 56 99 l40 68
45 -5 c24 -2 46 -6 48 -9 4 -3 -86 -294 -102 -328 -3 -8 -7 -18 -7 -22 -2 -15
-23 -26 -101 -54 -44 -16 -82 -29 -85 -30 -3 0 -14 -5 -25 -9 -11 -5 -76 -30
-145 -57 -135 -51 -135 -53 -15 -39 44 6 107 13 140 16 33 4 88 10 123 14 34
4 62 5 61 2 0 -3 -13 -42 -27 -86 l-27 -80 -267 -100 c-146 -55 -265 -101
-263 -103 2 -3 164 13 325 32 19 3 63 8 97 11 l61 7 -58 -183 c-32 -101 -57
-186 -55 -188 2 -2 73 43 157 99 174 117 125 58 398 485 78 121 145 224 149
228 4 4 14 -108 21 -250 7 -142 15 -252 18 -244 2 7 -1 129 -7 272 l-12 258
118 183 118 183 65 13 65 13 27 -33 c15 -18 46 -63 69 -100 23 -38 43 -68 45
-68 7 0 -16 41 -68 119 -27 40 -46 77 -41 80 4 4 56 18 115 31 l108 23 57 -38
c153 -101 282 -221 393 -363 63 -82 98 -116 45 -44 -128 171 -320 361 -436
429 -16 10 -29 20 -29 23 0 4 22 12 49 19 47 12 53 11 122 -19 130 -55 369
-192 369 -212 0 -4 5 -8 11 -8 35 0 354 -293 345 -316 -3 -7 0 -11 7 -9 12 4
63 -55 125 -147 18 -26 35 -48 38 -48 9 0 -59 94 -141 195 -265 324 -646 567
-1057 675 -61 16 -113 31 -116 34 -2 3 14 35 38 70 l42 66 117 35 c664 205
1079 390 1135 509 12 25 14 41 7 60 -18 46 -45 53 -216 61 l-160 7 -74 40
c-69 38 -77 40 -135 35 -121 -11 -388 -88 -876 -252 l-215 -72 -545 293 -545
294 -130 -3 c-71 -1 -145 -3 -164 -5z m1875 -1207 c71 -20 133 -40 138 -45 5
-5 -9 -14 -33 -21 -38 -11 -44 -10 -102 21 -33 17 -86 43 -117 56 -83 34 -35
29 114 -11z m-63 -38 c48 -22 87 -43 87 -47 0 -11 -211 -53 -219 -44 -3 5 -17
21 -30 36 l-24 27 27 41 c31 48 27 48 159 -13z m-862 -26 c-32 -38 -63 -77
-68 -86 -9 -15 -17 -15 -118 0 -60 9 -115 20 -122 24 -8 4 11 20 55 43 49 27
100 44 187 61 66 14 121 25 123 26 2 1 -24 -30 -57 -68z m48 -40 c-24 -75 -29
-79 -88 -62 -24 6 -22 9 39 74 34 37 65 66 67 63 3 -2 -6 -36 -18 -75z m-329
35 c0 -2 -16 -14 -35 -26 -29 -18 -44 -21 -81 -15 -25 3 -44 8 -42 11 5 4 123
31 146 33 6 1 12 -1 12 -3z m980 -41 c13 -14 22 -27 19 -29 -7 -6 -89 -14 -89
-9 0 9 34 63 40 63 4 0 17 -11 30 -25z"/>
<path d="M1370 2900 c8 -5 20 -10 25 -10 6 0 3 5 -5 10 -8 5 -19 10 -25 10 -5
0 -3 -5 5 -10z"/>
<path d="M3156 2757 c3 -10 9 -15 12 -12 3 3 0 11 -7 18 -10 9 -11 8 -5 -6z"/>
<path d="M1960 2740 c0 -6 7 -10 15 -10 8 0 15 2 15 4 0 2 -7 6 -15 10 -8 3
-15 1 -15 -4z"/>
<path d="M3823 2484 c0 -7 6 -15 12 -18 6 -2 12 2 12 10 0 7 -6 15 -12 18 -6
2 -12 -2 -12 -10z"/>
<path d="M1370 2365 c19 -7 42 -13 50 -13 8 0 -1 6 -20 13 -19 7 -42 13 -50
13 -8 0 1 -6 20 -13z"/>
<path d="M1455 2340 c11 -5 27 -9 35 -9 9 0 8 4 -5 9 -11 5 -27 9 -35 9 -9 0
-8 -4 5 -9z"/>
<path d="M1518 2323 c7 -3 16 -2 19 1 4 3 -2 6 -13 5 -11 0 -14 -3 -6 -6z"/>
<path d="M740 2280 c-11 -22 -18 -40 -15 -40 2 0 14 18 25 40 11 22 18 40 15
40 -2 0 -14 -18 -25 -40z"/>
<path d="M1558 2313 c7 -3 16 -2 19 1 4 3 -2 6 -13 5 -11 0 -14 -3 -6 -6z"/>
<path d="M1598 2303 c7 -3 16 -2 19 1 4 3 -2 6 -13 5 -11 0 -14 -3 -6 -6z"/>
<path d="M1688 2283 c7 -3 16 -2 19 1 4 3 -2 6 -13 5 -11 0 -14 -3 -6 -6z"/>
<path d="M4305 2109 c-150 -78 -322 -152 -515 -220 -74 -26 -130 -48 -125 -48
16 -1 227 71 340 116 129 52 316 137 381 174 28 16 54 26 58 22 4 -4 4 0 0 10
-3 9 -7 16 -8 16 0 -1 -59 -32 -131 -70z"/>
<path d="M2603 2060 c0 -36 2 -50 4 -32 2 17 2 47 0 65 -2 17 -4 3 -4 -33z"/>
<path d="M637 2068 c-3 -8 0 -15 7 -15 7 0 38 -12 70 -26 33 -15 61 -26 63
-24 2 2 -25 17 -59 32 -35 15 -66 32 -69 37 -3 5 -9 3 -12 -4z"/>
<path d="M839 1975 c29 -14 55 -24 58 -22 2 3 -15 12 -39 22 -69 28 -78 27
-19 0z"/>
<path d="M950 1930 c8 -5 20 -10 25 -10 6 0 3 5 -5 10 -8 5 -19 10 -25 10 -5
0 -3 -5 5 -10z"/>
<path d="M2612 1860 c0 -19 2 -27 5 -17 2 9 2 25 0 35 -3 9 -5 1 -5 -18z"/>
<path d="M1378 1858 c-30 -24 -37 -50 -22 -79 7 -15 21 -29 29 -33 26 -9 82
-7 108 5 20 9 23 16 20 52 -4 51 -23 67 -78 67 -23 0 -48 -6 -57 -12z"/>
<path d="M3578 1827 l-58 -10 0 -299 c0 -289 -1 -299 -21 -319 -16 -16 -30
-20 -65 -17 l-45 3 3 -60 3 -60 60 -3 c81 -5 126 11 168 57 51 57 57 101 57
421 l0 280 -27 0 c-22 0 -25 2 -13 10 17 11 17 11 -62 -3z"/>
<path d="M508 1822 l-48 -3 0 -290 0 -289 80 0 80 0 0 94 0 94 63 7 c135 15
198 77 199 198 0 87 -25 132 -92 168 -26 13 -199 26 -282 21z m210 -149 c31
-42 -12 -113 -69 -113 l-29 0 0 71 0 72 42 -6 c24 -3 48 -14 56 -24z"/>
<path d="M3488 1793 c7 -3 16 -2 19 1 4 3 -2 6 -13 5 -11 0 -14 -3 -6 -6z"/>
<path d="M2682 1730 c-12 -28 -29 -53 -39 -57 -33 -13 -53 -37 -53 -65 0 -24
4 -28 30 -28 l30 0 0 -120 c0 -188 26 -225 155 -224 99 0 115 11 115 78 l0 54
-37 -8 c-71 -16 -86 8 -81 135 l3 80 57 3 56 3 4 54 3 54 -60 3 -60 3 -3 43
-3 42 -48 0 -48 0 -21 -50z"/>
<path d="M4358 1732 c-13 -30 -33 -56 -54 -70 -26 -17 -34 -29 -34 -52 0 -25
4 -30 24 -30 23 0 23 -1 28 -128 5 -144 18 -181 72 -204 37 -15 139 -15 179 1
25 10 27 15 27 66 0 55 0 55 -27 49 -16 -3 -34 -8 -41 -10 -7 -2 -22 1 -33 6
-17 10 -19 22 -19 115 l0 105 55 0 55 0 0 55 0 55 -55 0 -55 0 0 45 0 45 -51
0 -51 0 -20 -48z"/>
<path d="M3368 1763 c7 -3 16 -2 19 1 4 3 -2 6 -13 5 -11 0 -14 -3 -6 -6z"/>
<path d="M3328 1753 c7 -3 16 -2 19 1 4 3 -2 6 -13 5 -11 0 -14 -3 -6 -6z"/>
<path d="M3278 1743 c7 -3 16 -2 19 1 4 3 -2 6 -13 5 -11 0 -14 -3 -6 -6z"/>
<path d="M3228 1733 c7 -3 16 -2 19 1 4 3 -2 6 -13 5 -11 0 -14 -3 -6 -6z"/>
<path d="M3178 1723 c7 -3 16 -2 19 1 4 3 -2 6 -13 5 -11 0 -14 -3 -6 -6z"/>
<path d="M3118 1713 c7 -3 16 -2 19 1 4 3 -2 6 -13 5 -11 0 -14 -3 -6 -6z"/>
<path d="M3058 1703 c7 -3 16 -2 19 1 4 3 -2 6 -13 5 -11 0 -14 -3 -6 -6z"/>
<path d="M1181 1679 c-19 -11 -42 -30 -52 -42 l-17 -22 -11 28 c-6 16 -11 33
-11 38 0 5 -27 9 -60 9 l-60 0 0 -225 0 -225 75 0 75 0 0 114 c0 168 15 196
104 196 25 0 47 3 49 8 3 4 6 36 8 72 l4 65 -35 3 c-22 1 -48 -5 -69 -19z"/>
<path d="M1895 1690 c3 -4 -13 -67 -35 -140 -22 -74 -40 -141 -41 -149 -1 -20
-18 31 -60 177 l-32 112 -79 0 c-71 0 -79 -2 -74 -17 3 -10 41 -110 84 -223
l78 -205 78 0 79 0 83 219 c46 121 83 220 82 221 -8 7 -166 11 -163 5z"/>
<path d="M2235 1690 c-22 -4 -52 -13 -67 -19 l-28 -10 21 -48 c11 -26 21 -49
23 -50 1 -1 24 4 51 12 72 22 102 19 121 -10 9 -14 15 -27 13 -29 -2 -2 -44
-9 -92 -15 -143 -17 -184 -57 -175 -166 6 -66 32 -100 91 -116 53 -14 108 -3
156 31 l39 29 12 -30 c12 -27 16 -29 66 -29 l54 0 0 171 c0 159 -2 174 -22
211 -13 22 -36 47 -53 56 -35 18 -152 25 -210 12z m135 -275 c0 -31 -41 -75
-69 -75 -23 0 -51 25 -51 46 0 28 38 54 80 54 36 0 40 -2 40 -25z"/>
<path d="M2978 1693 c6 -2 18 -2 25 0 6 3 1 5 -13 5 -14 0 -19 -2 -12 -5z"/>
<path d="M3130 1689 c-94 -29 -139 -100 -140 -220 0 -92 15 -134 68 -181 63
-57 187 -72 300 -37 31 10 32 12 32 66 0 53 -1 55 -22 48 -109 -33 -175 -30
-208 12 -11 14 -20 30 -20 34 0 5 63 9 140 9 l140 0 -1 63 c-1 96 -27 149 -92
187 -44 26 -142 35 -197 19z m134 -121 c29 -41 21 -48 -49 -48 -58 0 -65 2
-65 19 0 50 85 71 114 29z"/>
<path d="M3918 1686 c-63 -22 -88 -45 -114 -99 -18 -39 -24 -69 -24 -120 0
-106 34 -167 115 -210 48 -25 187 -29 248 -8 37 12 37 13 37 68 0 49 -2 54
-17 48 -10 -4 -46 -12 -81 -18 -57 -10 -67 -9 -99 8 -20 11 -40 30 -44 43 l-8
22 139 0 140 0 0 68 c-1 113 -42 175 -135 201 -53 14 -111 13 -157 -3z m134
-113 c10 -9 18 -24 18 -35 0 -16 -8 -18 -65 -18 -54 0 -65 3 -65 17 0 46 74
71 112 36z"/>
<path d="M1360 1465 l0 -225 75 0 75 0 0 225 0 225 -75 0 -75 0 0 -225z"/>
<path d="M1680 420 l0 -310 80 0 80 0 0 310 0 310 -80 0 -80 0 0 -310z"/>
<path d="M3280 618 l0 -112 -28 28 c-76 71 -197 29 -237 -83 -19 -55 -19 -163
0 -228 17 -57 65 -107 113 -118 39 -8 104 10 127 35 24 26 33 25 47 -5 10 -23
17 -25 70 -25 l58 0 0 310 0 310 -75 0 -75 0 0 -112z m-3 -208 c19 -38 17
-134 -4 -158 -29 -33 -57 -36 -89 -8 -26 21 -29 31 -29 83 0 82 22 115 73 111
27 -2 40 -9 49 -28z"/>
<path d="M1329 686 c-97 -34 -148 -93 -175 -198 -41 -159 29 -327 152 -369 52
-17 167 -17 227 0 l47 14 0 63 c0 35 -3 64 -7 64 -5 0 -30 -7 -57 -15 -141
-43 -210 8 -210 155 0 116 38 170 120 170 23 0 61 -7 84 -15 24 -8 44 -14 46
-13 1 2 12 28 24 58 20 50 20 55 5 67 -44 31 -191 42 -256 19z"/>
<path d="M2078 561 c-94 -31 -148 -110 -148 -216 0 -106 37 -178 113 -217 59
-31 165 -30 224 0 145 76 145 339 1 413 -47 24 -146 34 -190 20z m128 -146
c25 -60 14 -166 -19 -187 -7 -4 -24 -8 -39 -8 -41 0 -62 39 -62 115 0 82 20
115 70 115 31 0 37 -4 50 -35z"/>
<path d="M3637 558 c-21 -6 -51 -23 -67 -40 -26 -25 -30 -37 -30 -83 0 -71 27
-102 125 -145 77 -34 98 -62 54 -73 -24 -6 -111 6 -151 22 l-28 11 0 -60 c0
-57 2 -61 28 -72 15 -6 68 -11 117 -12 73 -1 98 3 130 20 53 27 77 74 72 137
-5 62 -32 91 -123 133 -81 37 -93 48 -65 63 13 8 35 6 75 -4 31 -8 61 -15 66
-15 9 0 45 88 39 95 -3 2 -31 11 -64 20 -66 17 -121 18 -178 3z"/>
<path d="M2470 389 c0 -220 13 -253 114 -280 54 -15 112 -2 152 33 l34 30 11
-31 c11 -30 13 -31 70 -31 l59 0 0 225 0 225 -80 0 -80 0 0 -135 c0 -100 -4
-144 -15 -164 -18 -36 -58 -45 -88 -21 -21 17 -22 28 -25 169 l-4 151 -74 0
-74 0 0 -171z"/>
</g>
</svg>
